<svg width="34" height="34" viewBox="0 0 34 34" fill="none" xmlns="http://www.w3.org/2000/svg">
<g id="Frame">
<path id="Vector" fill-rule="evenodd" clip-rule="evenodd" d="M22.6666 12.7499C22.6666 15.8795 20.1295 18.4166 17 18.4166C13.8704 18.4166 11.3333 15.8795 11.3333 12.7499C11.3333 9.6203 13.8704 7.08325 17 7.08325C20.1295 7.08325 22.6666 9.6203 22.6666 12.7499ZM19.8333 12.7499C19.8333 14.3148 18.5648 15.5833 17 15.5833C15.4351 15.5833 14.1666 14.3148 14.1666 12.7499C14.1666 11.1851 15.4351 9.91659 17 9.91659C18.5648 9.91659 19.8333 11.1851 19.8333 12.7499Z" fill="black"/>
<path id="Vector_2" fill-rule="evenodd" clip-rule="evenodd" d="M17 1.41675C8.39359 1.41675 1.41669 8.39365 1.41669 17.0001C1.41669 25.6065 8.39359 32.5834 17 32.5834C25.6064 32.5834 32.5834 25.6065 32.5834 17.0001C32.5834 8.39365 25.6064 1.41675 17 1.41675ZM4.25002 17.0001C4.25002 19.9612 5.25947 22.6866 6.95299 24.8508C9.28266 21.801 12.9572 19.8334 17.0914 19.8334C21.1718 19.8334 24.8047 21.7503 27.1384 24.7327C28.7768 22.5878 29.75 19.9076 29.75 17.0001C29.75 9.95846 24.0417 4.25008 17 4.25008C9.95839 4.25008 4.25002 9.95846 4.25002 17.0001ZM17 29.7501C13.9539 29.7501 11.1572 28.6818 8.96422 26.8995C10.7575 24.3401 13.729 22.6667 17.0914 22.6667C20.4119 22.6667 23.3514 24.2989 25.1512 26.8047C22.9414 28.6438 20.0998 29.7501 17 29.7501Z" fill="black"/>
</g>
</svg>
